<svg width="40" height="41" viewBox="0 0 40 41" fill="none" xmlns="http://www.w3.org/2000/svg">
<circle cx="20" cy="20.1818" r="16" fill="#FF9933"/>
<path d="M17.264 26.1818V25.0938H19.6V17.5738H17.744V16.7258C18.2133 16.6404 18.6187 16.5391 18.96 16.4218C19.312 16.2938 19.6267 16.1444 19.904 15.9738H20.912V25.0938H23.024V26.1818H17.264Z" fill="#252433"/>
<path d="M40 20.1818C40 31.2275 31.0457 40.1818 20 40.1818C8.9543 40.1818 0 31.2275 0 20.1818C0 9.13607 8.9543 0.181763 20 0.181763C31.0457 0.181763 40 9.13607 40 20.1818ZM2 20.1818C2 30.1229 10.0589 38.1818 20 38.1818C29.9411 38.1818 38 30.1229 38 20.1818C38 10.2406 29.9411 2.18176 20 2.18176C10.0589 2.18176 2 10.2406 2 20.1818Z" fill="#FF9933"/>
</svg>
