<svg width="40" height="40" viewBox="0 0 40 40" fill="none" xmlns="http://www.w3.org/2000/svg">
<circle cx="20" cy="20" r="16" fill="#FF9933"/>
<path d="M16.64 26V25.216C17.664 24.192 18.5333 23.296 19.248 22.528C19.9627 21.7493 20.5067 21.0507 20.88 20.432C21.2533 19.8027 21.44 19.216 21.44 18.672C21.44 18.0853 21.28 17.6053 20.96 17.232C20.64 16.8587 20.1547 16.672 19.504 16.672C19.0773 16.672 18.6827 16.7947 18.32 17.04C17.9573 17.2747 17.6267 17.5627 17.328 17.904L16.576 17.152C17.0027 16.6827 17.456 16.3093 17.936 16.032C18.4267 15.744 19.0027 15.6 19.664 15.6C20.6133 15.6 21.36 15.8773 21.904 16.432C22.448 16.976 22.72 17.7013 22.72 18.608C22.72 19.248 22.5387 19.8987 22.176 20.56C21.824 21.2107 21.3333 21.8987 20.704 22.624C20.0853 23.3387 19.3707 24.1173 18.56 24.96C18.8373 24.9387 19.1253 24.9173 19.424 24.896C19.7227 24.8747 20.0053 24.864 20.272 24.864H23.232V26H16.64Z" fill="#252433"/>
<path d="M40 20C40 31.0457 31.0457 40 20 40C8.9543 40 0 31.0457 0 20C0 8.9543 8.9543 0 20 0C31.0457 0 40 8.9543 40 20ZM2 20C2 29.9411 10.0589 38 20 38C29.9411 38 38 29.9411 38 20C38 10.0589 29.9411 2 20 2C10.0589 2 2 10.0589 2 20Z" fill="#FF9933"/>
</svg>
